HIERARCHY
ROOT Hips
{
  OFFSET 0.0273292 -0.436096 0.279869
  CHANNELS 6 Xposition Yposition Zposition Zrotation Xrotation Yrotation
  JOINT LHipJoint
  {
    OFFSET 0 0 0
    CHANNELS 6 Xposition Yposition Zposition Zrotation Xrotation Yrotation
    JOINT LeftUpLeg
    {
      OFFSET 1.36306 -1.79463 0
      CHANNELS 6 Xposition Yposition Zposition Zrotation Xrotation Yrotation
      JOINT LeftLeg
      {
        OFFSET 2.44807 -6.72613 0.000295034
        CHANNELS 6 Xposition Yposition Zposition Zrotation Xrotation Yrotation
        JOINT LeftFoot
        {
          OFFSET 2.5622 -7.03959 3.59965e-05
          CHANNELS 6 Xposition Yposition Zposition Zrotation Xrotation Yrotation
          JOINT LeftToeBase
          {
            OFFSET 0.15764 -0.43311 2.32255
            CHANNELS 6 Xposition Yposition Zposition Zrotation Xrotation Yrotation
            End Site
            {
              OFFSET 0 0 0
            }
          }
        }
      }
    }
  }
  JOINT RHipJoint
  {
    OFFSET 0 0 0
    CHANNELS 6 Xposition Yposition Zposition Zrotation Xrotation Yrotation
    JOINT RightUpLeg
    {
      OFFSET -1.30552 -1.79463 0
      CHANNELS 6 Xposition Yposition Zposition Zrotation Xrotation Yrotation
      JOINT RightLeg
      {
        OFFSET -2.54234 -6.98562 -0.000396375
        CHANNELS 6 Xposition Yposition Zposition Zrotation Xrotation Yrotation
        JOINT RightFoot
        {
          OFFSET -2.56826 -7.05623 -4.47982e-05
          CHANNELS 6 Xposition Yposition Zposition Zrotation Xrotation Yrotation
          JOINT RightToeBase
          {
            OFFSET -0.16473 -0.45259 2.36315
            CHANNELS 6 Xposition Yposition Zposition Zrotation Xrotation Yrotation
            End Site
            {
              OFFSET 0 0 0
            }
          }
        }
      }
    }
  }
  JOINT LowerBack
  {
    OFFSET 0 0 0
    CHANNELS 6 Xposition Yposition Zposition Zrotation Xrotation Yrotation
    JOINT Spine
    {
      OFFSET 0.0282699 2.03559 0
      CHANNELS 6 Xposition Yposition Zposition Zrotation Xrotation Yrotation
      JOINT Spine1
      {
        OFFSET 0.05672 2.04885 -0.04275
        CHANNELS 6 Xposition Yposition Zposition Zrotation Xrotation Yrotation
        JOINT Neck
        {
          OFFSET 0 0 0
          CHANNELS 6 Xposition Yposition Zposition Zrotation Xrotation Yrotation
          JOINT Neck1
          {
            OFFSET -0.05417 1.74624 0.17202
            CHANNELS 6 Xposition Yposition Zposition Zrotation Xrotation Yrotation
            JOINT Head
            {
              OFFSET 0.10407 1.76136 -0.12397
              CHANNELS 6 Xposition Yposition Zposition Zrotation Xrotation Yrotation
              End Site
              {
                OFFSET 0 0 0
              }
            }
          }
        }
        JOINT LeftShoulder
        {
          OFFSET 0 0 0
          CHANNELS 6 Xposition Yposition Zposition Zrotation Xrotation Yrotation
          JOINT LeftArm
          {
            OFFSET 3.36241 1.20089 -0.311211
            CHANNELS 6 Xposition Yposition Zposition Zrotation Xrotation Yrotation
            JOINT LeftForeArm
            {
              OFFSET 4.983 0.000197398 0.000166057
              CHANNELS 6 Xposition Yposition Zposition Zrotation Xrotation Yrotation
              JOINT LeftHand
              {
                OFFSET 3.48356 0 1.87849e-05
                CHANNELS 6 Xposition Yposition Zposition Zrotation Xrotation Yrotation
                JOINT LeftFingerBase
                {
                  OFFSET 0 0 0
                  CHANNELS 6 Xposition Yposition Zposition Zrotation Xrotation Yrotation
                  JOINT LeftHandIndex1
                  {
                    OFFSET 0.71526 0 0
                    CHANNELS 6 Xposition Yposition Zposition Zrotation Xrotation Yrotation
                    End Site
                    {
                      OFFSET 0 0 0
                    }
                  }
                }
                JOINT LThumb
                {
                  OFFSET 0 0 0
                  CHANNELS 6 Xposition Yposition Zposition Zrotation Xrotation Yrotation
                  End Site
                  {
                    OFFSET 0 0 0
                  }
                }
              }
            }
          }
        }
        JOINT RightShoulder
        {
          OFFSET 0 0 0
          CHANNELS 6 Xposition Yposition Zposition Zrotation Xrotation Yrotation
          JOINT RightArm
          {
            OFFSET -3.1366 1.37405 -0.404651
            CHANNELS 6 Xposition Yposition Zposition Zrotation Xrotation Yrotation
            JOINT RightForeArm
            {
              OFFSET -5.2419 -5.8808e-05 -0.000165864
              CHANNELS 6 Xposition Yposition Zposition Zrotation Xrotation Yrotation
              JOINT RightHand
              {
                OFFSET -3.44417 0 -2.00002e-05
                CHANNELS 6 Xposition Yposition Zposition Zrotation Xrotation Yrotation
                JOINT RightFingerBase
                {
                  OFFSET 0 0 0
                  CHANNELS 6 Xposition Yposition Zposition Zrotation Xrotation Yrotation
                  JOINT RightHandIndex1
                  {
                    OFFSET -0.62253 0 0
                    CHANNELS 6 Xposition Yposition Zposition Zrotation Xrotation Yrotation
                    End Site
                    {
                      OFFSET 0 0 0
                    }
                  }
                }
                JOINT RThumb
                {
                  OFFSET 0 0 0
                  CHANNELS 6 Xposition Yposition Zposition Zrotation Xrotation Yrotation
                  End Site
                  {
                    OFFSET 0 0 0
                  }
                }
              }
            }
          }
        }
      }
    }
  }
}
MOTION
Frames:	4
Frame Time:	0.00833333
0.805962 1.62778 0.267918 -0.298723 -0.690698 2.73669 0 0 0 -1.42876e-16 -2.98177e-16 -0 1.36306 -1.79463 3.09372e-08 -22.2756 -13.7179 0.728488 2.44808 -6.72613 0.000301759 -0.171464 27.8663 3.33468 2.56219 -7.0396 4.00639e-06 2.34404 -12.9235 -5.14523 0.15764 -0.43311 2.32255 6.37256e-15 2.48481e-17 -1.98785e-16 0 0 0 -1.42876e-16 -2.98177e-16 -0 -1.30552 -1.79463 -1.97039e-08 14.1178 -32.9691 -0.513916 -2.53985 -6.98649 0.0242247 29.7178 63.2485 -47.1341 -2.56826 -7.05623 4.98452e-05 6.7881 -2.12097 0.907392 -0.16473 -0.45259 2.36315 3.18055e-15 0 -0 0 0 0 -1.42876e-16 -2.98177e-16 -0 0.0282699 2.03559 2.83892e-08 -0.148911 5.10343 -3.71548 0.05672 2.04885 -0.04275 6.21202e-17 2.38542e-15 -0 0 0 0 4.96962e-17 7.95139e-16 -0 -0.05417 1.74624 0.17202 0.716616 -3.73 0.19315 0.10407 1.76136 -0.12397 -6.21202e-18 9.93923e-17 -9.93923e-17 0 0 0 4.96962e-17 7.95139e-16 -0 3.36241 1.20089 -0.31121 -68.2239 32.3652 -21.0271 4.983 0.000257437 5.75405e-05 0.553648 -0.74599 -31.7013 3.48356 4.68606e-06 -1.0925e-05 1.38407 0.485583 -2.53851 0 0 0 -5.29669e-31 -9.54166e-15 -3.18055e-15 0.71526 0 4.44089e-16 6.36111e-15 0 -3.18055e-15 0 0 0 -5.29669e-31 -9.54166e-15 -3.18055e-15 0 0 0 4.96962e-17 7.95139e-16 -0 -3.1366 1.37405 -0.404649 74.7366 23.5302 8.50549 -5.2419 0.000239583 6.8214e-05 -0.755446 -1.18053 17.1351 -3.44417 6.01683e-06 -2.48477e-05 -1.73055 -13.0959 5.66373 0 0 0 7.95139e-16 1.59028e-15 -0 -0.62253 -4.44089e-16 0 -1.59028e-15 0 -3.18055e-15 0 0 0 7.95139e-16 1.59028e-15 -0 
0.786145 1.67365 0.239622 -0.226432 -0.648361 2.97433 0 0 0 -6.21202e-18 -1.98785e-16 -0 1.36306 -1.79463 3.09372e-08 -22.2716 -11.6424 1.83771 2.44808 -6.72613 0.000301759 0.721004 25.9033 2.16626 2.56219 -7.0396 4.00639e-06 1.90433 -12.9135 -5.63254 0.15764 -0.43311 2.32255 -2.36115e-15 -2.48481e-17 -0 0 0 0 -6.21202e-18 -1.98785e-16 -0 -1.30552 -1.79463 -1.97039e-08 14.5112 -34.6857 0.364658 -2.53985 -6.98649 0.0242247 26.7714 61.6612 -43.8068 -2.56826 -7.05623 4.98452e-05 6.84609 -3.45317 1.47938 -0.16473 -0.45259 2.36315 3.18055e-15 -3.18055e-15 -6.36111e-15 0 0 0 -6.21202e-18 -1.98785e-16 -0 0.0282699 2.03559 2.83892e-08 -0.246046 5.12556 -4.05159 0.05672 2.04885 -0.04275 -9.93923e-17 1.59028e-15 -3.97569e-16 0 0 0 0 1.59028e-15 -0 -0.05417 1.74624 0.17202 0.863509 -3.70903 0.298368 0.10407 1.76136 -0.12397 1.72418e-34 9.93923e-17 -9.93923e-17 0 0 0 0 1.59028e-15 -0 3.36241 1.20089 -0.31121 -66.2859 33.5938 -23.0709 4.983 0.000257437 5.75405e-05 0.535737 -0.683406 -34.0161 3.48356 4.68606e-06 -1.0925e-05 1.79971 0.352819 -2.46691 0 0 0 3.53113e-31 6.36111e-15 -3.18055e-15 0.71526 8.88178e-16 0 3.18055e-15 3.18055e-15 9.54166e-15 0 0 0 3.53113e-31 6.36111e-15 -3.18055e-15 0 0 0 0 1.59028e-15 -0 -3.1366 1.37405 -0.404649 75.8712 22.1631 6.98755 -5.2419 0.000239583 6.8214e-05 -0.755806 -1.18074 17.127 -3.44417 6.01683e-06 -2.48477e-05 -0.673366 -12.4649 5.76496 0 0 0 -7.95139e-16 0 6.36111e-15 -0.62253 0 0 7.95139e-16 -1.59028e-15 3.18055e-15 0 0 0 -7.95139e-16 0 6.36111e-15 
0.765812 1.71147 0.212704 -0.163695 -0.538856 3.19831 0 0 0 -6.21202e-18 0 -7.95139e-16 1.36306 -1.79463 3.09372e-08 -22.2916 -9.5588 3.02865 2.44808 -6.72613 0.000301759 1.57848 23.7668 0.983288 2.56219 -7.0396 4.00639e-06 1.44331 -12.9017 -6.15305 0.15764 -0.43311 2.32255 -2.48034e-15 -2.48481e-17 -0 0 0 0 -6.21202e-18 0 -7.95139e-16 -1.30552 -1.79463 -1.97039e-08 14.9819 -36.2709 1.29266 -2.53985 -6.98649 0.0242247 23.2112 59.6452 -40.0185 -2.56826 -7.05623 4.98452e-05 6.92918 -4.71672 2.01485 -0.16473 -0.45259 2.36315 4.77083e-15 3.18055e-15 -3.18055e-15 0 0 0 -6.21202e-18 0 -7.95139e-16 0.0282699 2.03559 2.83892e-08 -0.365736 5.13906 -4.35621 0.05672 2.04885 -0.04275 3.72721e-17 7.95139e-16 3.97569e-16 0 0 0 -8.69683e-17 7.95139e-16 1.98785e-16 -0.05417 1.74624 0.17202 1.05382 -3.70414 0.542755 0.10407 1.76136 -0.12397 -1.70831e-17 2.98177e-16 -9.93923e-17 0 0 0 -8.69683e-17 7.95139e-16 1.98785e-16 3.36241 1.20089 -0.31121 -64.141 34.8603 -25.1694 4.983 0.000257437 5.75405e-05 0.519846 -0.615431 -36.5393 3.48356 4.68606e-06 -1.0925e-05 2.13131 0.209323 -2.29642 0 0 0 6.36111e-15 1.59028e-15 -3.18055e-15 0.71526 0 4.44089e-16 -1.76556e-31 3.18055e-15 3.18055e-15 0 0 0 6.36111e-15 1.59028e-15 -3.18055e-15 0 0 0 -8.69683e-17 7.95139e-16 1.98785e-16 -3.1366 1.37405 -0.404649 76.9228 20.8687 5.48867 -5.2419 0.000239583 6.8214e-05 -0.755992 -1.18085 17.1229 -3.44417 6.01683e-06 -2.48477e-05 0.53721 -11.7725 5.80098 0 0 0 -1.98785e-15 -4.77083e-15 9.54166e-15 -0.62253 0 0 -1.19271e-15 -4.77083e-15 6.36111e-15 0 0 0 -1.98785e-15 -4.77083e-15 9.54166e-15 
0.744199 1.73715 0.188026 -0.0771807 -0.38799 3.43018 0 0 0 -6.21202e-18 0 7.95139e-16 1.36306 -1.79463 3.09372e-08 -22.356 -7.48368 4.25949 2.44808 -6.72613 0.000301759 2.36421 21.5413 -0.148757 2.56219 -7.0396 4.00639e-06 0.963543 -12.8872 -6.73203 0.15764 -0.43311 2.32255 1.62173e-15 -4.96962e-17 9.93923e-17 0 0 0 -6.21202e-18 0 7.95139e-16 -1.30552 -1.79463 -1.97039e-08 15.5046 -37.7341 2.24047 -2.53985 -6.98649 0.0242247 19.6036 57.2987 -36.2605 -2.56826 -7.05623 4.98452e-05 7.03329 -5.92398 2.52399 -0.16473 -0.45259 2.36315 5.56597e-15 4.77083e-15 -0 0 0 0 -6.21202e-18 0 7.95139e-16 0.0282699 2.03559 2.83892e-08 -0.511504 5.1453 -4.64557 0.05672 2.04885 -0.04275 -6.21202e-17 0 -1.98785e-16 0 0 0 1.36664e-16 0 1.98785e-16 -0.05417 1.74624 0.17202 1.27035 -3.70071 0.819392 0.10407 1.76136 -0.12397 3.10601e-18 -3.97569e-16 -0 0 0 0 1.36664e-16 0 1.98785e-16 3.36241 1.20089 -0.31121 -61.8721 36.1271 -27.2996 4.983 0.000257437 5.75405e-05 0.503188 -0.54194 -39.1496 3.48356 4.68606e-06 -1.0925e-05 2.51291 0.0647572 -2.09333 0 0 0 3.97252e-31 -4.77083e-15 4.77083e-15 0.71526 0 -6.66134e-16 0 3.18055e-15 -0 0 0 0 3.97252e-31 -4.77083e-15 4.77083e-15 0 0 0 1.36664e-16 0 1.98785e-16 -3.1366 1.37405 -0.404649 77.9313 19.6058 4.01163 -5.2419 0.000239583 6.8214e-05 -0.75606 -1.18089 17.1213 -3.44417 6.01683e-06 -2.48477e-05 1.79474 -11.0339 5.81255 0 0 0 7.95139e-16 0 -6.36111e-15 -0.62253 0 -1.11022e-16 -3.97569e-16 0 -6.36111e-15 0 0 0 7.95139e-16 0 -6.36111e-15 
